<svg xmlns="http://www.w3.org/2000/svg" width="415" height="415"><g data-name="Group 5" transform="rotate(-90 940.108 1077.912)" opacity=".18" fill="#312e2a"><circle data-name="Ellipse 4" cx="4.069" cy="4.069" r="4.069" transform="translate(1603.02 137.804)"/><circle data-name="Ellipse 5" cx="4.069" cy="4.069" r="4.069" transform="translate(1643.707 137.804)"/><circle data-name="Ellipse 6" cx="4.069" cy="4.069" r="4.069" transform="translate(1684.393 137.804)"/><circle data-name="Ellipse 7" cx="4.069" cy="4.069" r="4.069" transform="translate(1725.079 137.804)"/><circle data-name="Ellipse 8" cx="4.069" cy="4.069" r="4.069" transform="translate(1765.765 137.804)"/><circle data-name="Ellipse 9" cx="4.069" cy="4.069" r="4.069" transform="translate(1806.452 137.804)"/><circle data-name="Ellipse 10" cx="4.069" cy="4.069" r="4.069" transform="translate(1847.138 137.804)"/><circle data-name="Ellipse 11" cx="4.069" cy="4.069" r="4.069" transform="translate(1887.824 137.804)"/><circle data-name="Ellipse 12" cx="4.069" cy="4.069" r="4.069" transform="translate(1928.51 137.804)"/><circle data-name="Ellipse 13" cx="4.069" cy="4.069" r="4.069" transform="translate(1969.197 137.804)"/><circle data-name="Ellipse 14" cx="4.069" cy="4.069" r="4.069" transform="translate(2009.883 137.804)"/><circle data-name="Ellipse 15" cx="4.069" cy="4.069" r="4.069" transform="translate(1603.02 178.49)"/><circle data-name="Ellipse 16" cx="4.069" cy="4.069" r="4.069" transform="translate(1643.707 178.49)"/><circle data-name="Ellipse 17" cx="4.069" cy="4.069" r="4.069" transform="translate(1684.393 178.49)"/><circle data-name="Ellipse 18" cx="4.069" cy="4.069" r="4.069" transform="translate(1725.079 178.49)"/><circle data-name="Ellipse 19" cx="4.069" cy="4.069" r="4.069" transform="translate(1765.765 178.49)"/><circle data-name="Ellipse 20" cx="4.069" cy="4.069" r="4.069" transform="translate(1806.452 178.49)"/><circle data-name="Ellipse 21" cx="4.069" cy="4.069" r="4.069" transform="translate(1847.138 178.49)"/><circle data-name="Ellipse 22" cx="4.069" cy="4.069" r="4.069" transform="translate(1887.824 178.49)"/><circle data-name="Ellipse 23" cx="4.069" cy="4.069" r="4.069" transform="translate(1928.51 178.49)"/><circle data-name="Ellipse 24" cx="4.069" cy="4.069" r="4.069" transform="translate(1969.197 178.49)"/><circle data-name="Ellipse 25" cx="4.069" cy="4.069" r="4.069" transform="translate(2009.883 178.49)"/><circle data-name="Ellipse 26" cx="4.069" cy="4.069" r="4.069" transform="translate(1603.02 219.176)"/><circle data-name="Ellipse 27" cx="4.069" cy="4.069" r="4.069" transform="translate(1643.707 219.176)"/><circle data-name="Ellipse 28" cx="4.069" cy="4.069" r="4.069" transform="translate(1684.393 219.176)"/><circle data-name="Ellipse 29" cx="4.069" cy="4.069" r="4.069" transform="translate(1725.079 219.176)"/><circle data-name="Ellipse 30" cx="4.069" cy="4.069" r="4.069" transform="translate(1765.765 219.176)"/><circle data-name="Ellipse 31" cx="4.069" cy="4.069" r="4.069" transform="translate(1806.452 219.176)"/><circle data-name="Ellipse 32" cx="4.069" cy="4.069" r="4.069" transform="translate(1847.138 219.176)"/><circle data-name="Ellipse 33" cx="4.069" cy="4.069" r="4.069" transform="translate(1887.824 219.176)"/><circle data-name="Ellipse 34" cx="4.069" cy="4.069" r="4.069" transform="translate(1928.51 219.176)"/><circle data-name="Ellipse 35" cx="4.069" cy="4.069" r="4.069" transform="translate(1969.197 219.176)"/><circle data-name="Ellipse 36" cx="4.069" cy="4.069" r="4.069" transform="translate(2009.883 219.176)"/><circle data-name="Ellipse 37" cx="4.069" cy="4.069" r="4.069" transform="translate(1603.02 259.862)"/><circle data-name="Ellipse 38" cx="4.069" cy="4.069" r="4.069" transform="translate(1643.707 259.862)"/><circle data-name="Ellipse 39" cx="4.069" cy="4.069" r="4.069" transform="translate(1684.393 259.862)"/><circle data-name="Ellipse 40" cx="4.069" cy="4.069" r="4.069" transform="translate(1725.079 259.862)"/><circle data-name="Ellipse 41" cx="4.069" cy="4.069" r="4.069" transform="translate(1765.765 259.862)"/><circle data-name="Ellipse 42" cx="4.069" cy="4.069" r="4.069" transform="translate(1806.452 259.862)"/><circle data-name="Ellipse 43" cx="4.069" cy="4.069" r="4.069" transform="translate(1847.138 259.862)"/><circle data-name="Ellipse 44" cx="4.069" cy="4.069" r="4.069" transform="translate(1887.824 259.862)"/><circle data-name="Ellipse 45" cx="4.069" cy="4.069" r="4.069" transform="translate(1928.51 259.862)"/><circle data-name="Ellipse 46" cx="4.069" cy="4.069" r="4.069" transform="translate(1969.197 259.862)"/><circle data-name="Ellipse 47" cx="4.069" cy="4.069" r="4.069" transform="translate(2009.883 259.862)"/><circle data-name="Ellipse 48" cx="4.069" cy="4.069" r="4.069" transform="translate(1603.02 300.548)"/><circle data-name="Ellipse 49" cx="4.069" cy="4.069" r="4.069" transform="translate(1643.707 300.548)"/><circle data-name="Ellipse 50" cx="4.069" cy="4.069" r="4.069" transform="translate(1684.393 300.548)"/><circle data-name="Ellipse 51" cx="4.069" cy="4.069" r="4.069" transform="translate(1725.079 300.548)"/><circle data-name="Ellipse 52" cx="4.069" cy="4.069" r="4.069" transform="translate(1765.765 300.548)"/><circle data-name="Ellipse 53" cx="4.069" cy="4.069" r="4.069" transform="translate(1806.452 300.548)"/><circle data-name="Ellipse 54" cx="4.069" cy="4.069" r="4.069" transform="translate(1847.138 300.548)"/><circle data-name="Ellipse 55" cx="4.069" cy="4.069" r="4.069" transform="translate(1887.824 300.548)"/><circle data-name="Ellipse 56" cx="4.069" cy="4.069" r="4.069" transform="translate(1928.51 300.548)"/><circle data-name="Ellipse 57" cx="4.069" cy="4.069" r="4.069" transform="translate(1969.197 300.548)"/><circle data-name="Ellipse 58" cx="4.069" cy="4.069" r="4.069" transform="translate(2009.883 300.548)"/><circle data-name="Ellipse 59" cx="4.069" cy="4.069" r="4.069" transform="translate(1603.02 341.235)"/><circle data-name="Ellipse 60" cx="4.069" cy="4.069" r="4.069" transform="translate(1643.707 341.235)"/><circle data-name="Ellipse 61" cx="4.069" cy="4.069" r="4.069" transform="translate(1684.393 341.235)"/><circle data-name="Ellipse 62" cx="4.069" cy="4.069" r="4.069" transform="translate(1725.079 341.235)"/><circle data-name="Ellipse 63" cx="4.069" cy="4.069" r="4.069" transform="translate(1765.765 341.235)"/><circle data-name="Ellipse 64" cx="4.069" cy="4.069" r="4.069" transform="translate(1806.452 341.235)"/><circle data-name="Ellipse 65" cx="4.069" cy="4.069" r="4.069" transform="translate(1847.138 341.235)"/><circle data-name="Ellipse 66" cx="4.069" cy="4.069" r="4.069" transform="translate(1887.824 341.235)"/><circle data-name="Ellipse 67" cx="4.069" cy="4.069" r="4.069" transform="translate(1928.51 341.235)"/><circle data-name="Ellipse 68" cx="4.069" cy="4.069" r="4.069" transform="translate(1969.197 341.235)"/><circle data-name="Ellipse 69" cx="4.069" cy="4.069" r="4.069" transform="translate(2009.883 341.235)"/><circle data-name="Ellipse 70" cx="4.069" cy="4.069" r="4.069" transform="translate(1603.02 381.921)"/><circle data-name="Ellipse 71" cx="4.069" cy="4.069" r="4.069" transform="translate(1643.707 381.921)"/><circle data-name="Ellipse 72" cx="4.069" cy="4.069" r="4.069" transform="translate(1684.393 381.921)"/><circle data-name="Ellipse 73" cx="4.069" cy="4.069" r="4.069" transform="translate(1725.079 381.921)"/><circle data-name="Ellipse 74" cx="4.069" cy="4.069" r="4.069" transform="translate(1765.765 381.921)"/><circle data-name="Ellipse 75" cx="4.069" cy="4.069" r="4.069" transform="translate(1806.452 381.921)"/><circle data-name="Ellipse 76" cx="4.069" cy="4.069" r="4.069" transform="translate(1847.138 381.921)"/><circle data-name="Ellipse 77" cx="4.069" cy="4.069" r="4.069" transform="translate(1887.824 381.921)"/><circle data-name="Ellipse 78" cx="4.069" cy="4.069" r="4.069" transform="translate(1928.51 381.921)"/><circle data-name="Ellipse 79" cx="4.069" cy="4.069" r="4.069" transform="translate(1969.197 381.921)"/><circle data-name="Ellipse 80" cx="4.069" cy="4.069" r="4.069" transform="translate(2009.883 381.921)"/><circle data-name="Ellipse 81" cx="4.069" cy="4.069" r="4.069" transform="translate(1603.02 422.607)"/><circle data-name="Ellipse 82" cx="4.069" cy="4.069" r="4.069" transform="translate(1643.707 422.607)"/><circle data-name="Ellipse 83" cx="4.069" cy="4.069" r="4.069" transform="translate(1684.393 422.607)"/><circle data-name="Ellipse 84" cx="4.069" cy="4.069" r="4.069" transform="translate(1725.079 422.607)"/><circle data-name="Ellipse 85" cx="4.069" cy="4.069" r="4.069" transform="translate(1765.765 422.607)"/><circle data-name="Ellipse 86" cx="4.069" cy="4.069" r="4.069" transform="translate(1806.452 422.607)"/><circle data-name="Ellipse 87" cx="4.069" cy="4.069" r="4.069" transform="translate(1847.138 422.607)"/><circle data-name="Ellipse 88" cx="4.069" cy="4.069" r="4.069" transform="translate(1887.824 422.607)"/><circle data-name="Ellipse 89" cx="4.069" cy="4.069" r="4.069" transform="translate(1928.51 422.607)"/><circle data-name="Ellipse 90" cx="4.069" cy="4.069" r="4.069" transform="translate(1969.197 422.607)"/><circle data-name="Ellipse 91" cx="4.069" cy="4.069" r="4.069" transform="translate(2009.883 422.607)"/><circle data-name="Ellipse 92" cx="4.069" cy="4.069" r="4.069" transform="translate(1603.02 463.293)"/><circle data-name="Ellipse 93" cx="4.069" cy="4.069" r="4.069" transform="translate(1643.707 463.293)"/><circle data-name="Ellipse 94" cx="4.069" cy="4.069" r="4.069" transform="translate(1684.393 463.293)"/><circle data-name="Ellipse 95" cx="4.069" cy="4.069" r="4.069" transform="translate(1725.079 463.293)"/><circle data-name="Ellipse 96" cx="4.069" cy="4.069" r="4.069" transform="translate(1765.765 463.293)"/><circle data-name="Ellipse 97" cx="4.069" cy="4.069" r="4.069" transform="translate(1806.452 463.293)"/><circle data-name="Ellipse 98" cx="4.069" cy="4.069" r="4.069" transform="translate(1847.138 463.293)"/><circle data-name="Ellipse 99" cx="4.069" cy="4.069" r="4.069" transform="translate(1887.824 463.293)"/><circle data-name="Ellipse 100" cx="4.069" cy="4.069" r="4.069" transform="translate(1928.51 463.293)"/><circle data-name="Ellipse 101" cx="4.069" cy="4.069" r="4.069" transform="translate(1969.197 463.293)"/><circle data-name="Ellipse 102" cx="4.069" cy="4.069" r="4.069" transform="translate(2009.883 463.293)"/><circle data-name="Ellipse 103" cx="4.069" cy="4.069" r="4.069" transform="translate(1603.02 503.98)"/><circle data-name="Ellipse 104" cx="4.069" cy="4.069" r="4.069" transform="translate(1643.707 503.98)"/><circle data-name="Ellipse 105" cx="4.069" cy="4.069" r="4.069" transform="translate(1684.393 503.98)"/><circle data-name="Ellipse 106" cx="4.069" cy="4.069" r="4.069" transform="translate(1725.079 503.98)"/><circle data-name="Ellipse 107" cx="4.069" cy="4.069" r="4.069" transform="translate(1765.765 503.98)"/><circle data-name="Ellipse 108" cx="4.069" cy="4.069" r="4.069" transform="translate(1806.452 503.98)"/><circle data-name="Ellipse 109" cx="4.069" cy="4.069" r="4.069" transform="translate(1847.138 503.98)"/><circle data-name="Ellipse 110" cx="4.069" cy="4.069" r="4.069" transform="translate(1887.824 503.98)"/><circle data-name="Ellipse 111" cx="4.069" cy="4.069" r="4.069" transform="translate(1928.51 503.98)"/><circle data-name="Ellipse 112" cx="4.069" cy="4.069" r="4.069" transform="translate(1969.197 503.98)"/><circle data-name="Ellipse 113" cx="4.069" cy="4.069" r="4.069" transform="translate(2009.883 503.98)"/><circle data-name="Ellipse 114" cx="4.069" cy="4.069" r="4.069" transform="translate(1603.02 544.666)"/><circle data-name="Ellipse 115" cx="4.069" cy="4.069" r="4.069" transform="translate(1643.707 544.666)"/><circle data-name="Ellipse 116" cx="4.069" cy="4.069" r="4.069" transform="translate(1684.393 544.666)"/><circle data-name="Ellipse 117" cx="4.069" cy="4.069" r="4.069" transform="translate(1725.079 544.666)"/><circle data-name="Ellipse 118" cx="4.069" cy="4.069" r="4.069" transform="translate(1765.765 544.666)"/><circle data-name="Ellipse 119" cx="4.069" cy="4.069" r="4.069" transform="translate(1806.452 544.666)"/><circle data-name="Ellipse 120" cx="4.069" cy="4.069" r="4.069" transform="translate(1847.138 544.666)"/><circle data-name="Ellipse 121" cx="4.069" cy="4.069" r="4.069" transform="translate(1887.824 544.666)"/><circle data-name="Ellipse 122" cx="4.069" cy="4.069" r="4.069" transform="translate(1928.51 544.666)"/><circle data-name="Ellipse 123" cx="4.069" cy="4.069" r="4.069" transform="translate(1969.197 544.666)"/><circle data-name="Ellipse 124" cx="4.069" cy="4.069" r="4.069" transform="translate(2009.883 544.666)"/></g></svg>