<svg xmlns="http://www.w3.org/2000/svg" width="154.676" height="51.081"><path d="M19.533 51.081a25.688 25.688 0 0 1-7.729-1.124 18.31 18.31 0 0 1-6.183-3.513 16.687 16.687 0 0 1-4.146-5.832 21.115 21.115 0 0 1-1.476-8.221 19.376 19.376 0 0 1 1.476-7.94 15.694 15.694 0 0 1 4-5.48 15.181 15.181 0 0 1 5.621-3.162 20.313 20.313 0 0 1 6.464-1.054 19.222 19.222 0 0 1 6.745 1.124 15.828 15.828 0 0 1 5.27 3.092 13.177 13.177 0 0 1 3.443 4.708 14.077 14.077 0 0 1 1.265 5.972 4.794 4.794 0 0 1-1.335 3.654 6.675 6.675 0 0 1-3.724 1.616l-17.355 2.6a5.959 5.959 0 0 0 3.162 3.513 12.729 12.729 0 0 0 5.48 1.124 20.136 20.136 0 0 0 5.41-.7 18.125 18.125 0 0 0 4.216-1.757 5.883 5.883 0 0 1 1.9 1.967 5.157 5.157 0 0 1-2.178 7.378 15.645 15.645 0 0 1-5.059 1.616 35.631 35.631 0 0 1-5.267.419Zm-1.967-27.613a7.212 7.212 0 0 0-2.951.562 5.724 5.724 0 0 0-1.967 1.476 5.991 5.991 0 0 0-1.194 1.967 8.543 8.543 0 0 0-.422 2.178l12.015-1.967a5.31 5.31 0 0 0-1.546-2.811 5.176 5.176 0 0 0-3.935-1.405Zm37.087 18.9a17.606 17.606 0 0 0 2.6-.211 6.946 6.946 0 0 0 2.178-.7v-5.621l-5.059.422a7.774 7.774 0 0 0-3.232.843 2.27 2.27 0 0 0-1.265 2.108 2.934 2.934 0 0 0 1.054 2.319 6.329 6.329 0 0 0 3.723.84Zm-.562-27.613a28.414 28.414 0 0 1 6.886.773 14.721 14.721 0 0 1 5.34 2.389 10.174 10.174 0 0 1 3.443 4 12.6 12.6 0 0 1 1.194 5.691v15.739a4.4 4.4 0 0 1-1.054 3.021 9.925 9.925 0 0 1-2.389 1.967q-4.567 2.74-12.858 2.74a29.832 29.832 0 0 1-6.745-.7 16.388 16.388 0 0 1-5.129-2.108 10.081 10.081 0 0 1-3.3-3.583 10.883 10.883 0 0 1-1.124-5.059q0-4.848 2.881-7.448t8.923-3.232l9.2-.984v-.492a2.939 2.939 0 0 0-1.827-2.881 11.412 11.412 0 0 0-5.129-.913 23.9 23.9 0 0 0-5.2.562 27.628 27.628 0 0 0-4.567 1.405 4.909 4.909 0 0 1-1.546-1.9 6.336 6.336 0 0 1-.632-2.74 4.488 4.488 0 0 1 .843-2.881 6.922 6.922 0 0 1 2.74-1.9 21.083 21.083 0 0 1 4.778-1.124 42.627 42.627 0 0 1 5.271-.342ZM90.2 38.223a2.927 2.927 0 0 0 1.124 2.6 6.044 6.044 0 0 0 3.3.773 17.573 17.573 0 0 0 2.178-.141 15.027 15.027 0 0 0 1.967-.492 7.289 7.289 0 0 1 1.054 1.757 4.693 4.693 0 0 1 .492 2.248 5.394 5.394 0 0 1-2.038 4.356q-1.967 1.686-7.026 1.686-6.183 0-9.556-2.811-3.3-2.811-3.3-9.134V8.994a20.108 20.108 0 0 1 2.178-.422 16.494 16.494 0 0 1 3.092-.281 8.578 8.578 0 0 1 4.778 1.124q1.757 1.054 1.757 4.567v4.5h9.2a10.123 10.123 0 0 1 .773 1.967 7.163 7.163 0 0 1 .422 2.529 4.905 4.905 0 0 1-1.124 3.583 3.893 3.893 0 0 1-2.871 1.052h-6.4Zm15.907-31.9a6.239 6.239 0 0 1 1.757-4.5 6.462 6.462 0 0 1 4.778-1.827 6.227 6.227 0 0 1 4.708 1.827 6.448 6.448 0 0 1 0 8.994 6.227 6.227 0 0 1-4.708 1.827 6.462 6.462 0 0 1-4.778-1.827 6.239 6.239 0 0 1-1.756-4.493Zm12.507 43.563q-.773.14-2.319.351a16.109 16.109 0 0 1-3.021.281 17.167 17.167 0 0 1-2.811-.211 4.7 4.7 0 0 1-2.038-.843 4.37 4.37 0 0 1-1.335-1.686 8.318 8.318 0 0 1-.422-2.881V16.3q.773-.14 2.248-.351a17.243 17.243 0 0 1 3.092-.281 15.9 15.9 0 0 1 2.74.211 4.759 4.759 0 0 1 2.108.843 3.8 3.8 0 0 1 1.265 1.757 6.724 6.724 0 0 1 .492 2.811Zm8.8.07a8.012 8.012 0 0 1-1.827-2.319 6.974 6.974 0 0 1-.632-3.021 6.336 6.336 0 0 1 .632-2.74 13.747 13.747 0 0 1 1.686-2.6l12.085-14.193H126.43a13.7 13.7 0 0 1-.843-1.967 9.183 9.183 0 0 1-.351-2.6 4.847 4.847 0 0 1 1.054-3.513 3.99 3.99 0 0 1 2.951-1.124h22.133a7.076 7.076 0 0 1 1.757 2.319 6.387 6.387 0 0 1 .7 3.021 6.235 6.235 0 0 1-.7 2.811 12.157 12.157 0 0 1-1.616 2.529l-11.8 14.193h13.772a10.122 10.122 0 0 1 .773 1.967 7.76 7.76 0 0 1 .422 2.6 4.905 4.905 0 0 1-1.124 3.583 3.892 3.892 0 0 1-2.881 1.054Z" fill="#fe043c"/></svg>